<svg width="64" height="44" viewBox="0 0 64 44" fill="none" xmlns="http://www.w3.org/2000/svg">
<path d="M58.625 35.375V16.625H48V35.375H58.625ZM61.375 11.375C62.125 11.375 62.75 11.625 63.25 12.125C63.75 12.625 64 13.25 64 14V40.625C64 41.375 63.75 42.0417 63.25 42.625C62.75 43.125 62.125 43.375 61.375 43.375H45.375C44.625 43.375 43.9583 43.125 43.375 42.625C42.875 42.0417 42.625 41.375 42.625 40.625V14C42.625 13.25 42.875 12.625 43.375 12.125C43.9583 11.625 44.625 11.375 45.375 11.375H61.375ZM10.625 6V35.375H37.375V43.375H0V35.375H5.375V6C5.375 4.58333 5.875 3.33333 6.875 2.25C7.95833 1.16667 9.20833 0.625 10.625 0.625H58.625V6H10.625Z" fill="url(#paint0_linear)"/>
<defs>
<linearGradient id="paint0_linear" x1="-13.4737" y1="22" x2="77.4737" y2="22" gradientUnits="userSpaceOnUse">
<stop stop-color="#F27A54"/>
<stop offset="1" stop-color="#A154F2"/>
</linearGradient>
</defs>
</svg>
